# xmcd
#
# Track frame offsets:
#	150
#	10088
#	22981
#	33631
#	42879
#	52352
#	64795
#	75235
#	88360
#	98275
#	108303
#
# Disc length: 1605 seconds
#
# Revision: 1
# Processed by: cddbd v1.5.2PL0 Copyright (c) Steve Scherf et al.
# Submitted via: audiograbber 1.83.01
#
DISCID=7f06430b
DTITLE=Freddy Weller - Sexy Lady
DYEAR=1974
DGENRE=Country
TTITLE0=Sexy Lady
TTITLE1=You're Net Getting Older (Your Getting Better)
TTITLE2=Ain't It Good?
TTITLE3=Put Your Heart Into It
TTITLE4=Hot Fire (Burning At Home)
TTITLE5=I've Just Got To Know (How Loving You Would Be)
TTITLE6=Love Light
TTITLE7=Scarlet Water
TTITLE8=Are We Makin' Love?
TTITLE9=Always Something Special
TTITLE10=Lovin' Time
EXTD=This CD was made from one of my LP's
EXTT0=
EXTT1=
EXTT2=
EXTT3=
EXTT4=
EXTT5=
EXTT6=
EXTT7=
EXTT8=
EXTT9=
EXTT10=
PLAYORDER=
